HIERARCHY
ROOT Hips
{
	OFFSET	0.00	0.00	0.00
	CHANNELS 6 Xposition Yposition Zposition Zrotation Xrotation Yrotation
	JOINT LeftUpLeg
	{
		OFFSET	 0.126116	-0.014019	-0.065224
		CHANNELS 3 Zrotation Xrotation Yrotation
		JOINT LeftLeg
		{
			OFFSET	 0.000000	 0.000000	 0.569914
			CHANNELS 3 Zrotation Xrotation Yrotation
			JOINT LeftFoot
			{
				OFFSET	 0.000000	 0.000000	 0.544423
				CHANNELS 3 Zrotation Xrotation Yrotation
				JOINT LeftToeBase
				{
					OFFSET	 0.000000	 0.000000	 0.207117
					CHANNELS 3 Zrotation Xrotation Yrotation
					End Site
					{
						OFFSET	 0.000000	 0.000000	 0.207117
					}
				}
			}
		}
	}
	JOINT RightUpLeg
	{
		OFFSET	-0.124023	-0.008373	-0.065224
		CHANNELS 3 Zrotation Xrotation Yrotation
		JOINT RightLeg
		{
			OFFSET	 0.000000	 0.000000	 0.570047
			CHANNELS 3 Zrotation Xrotation Yrotation
			JOINT RightFoot
			{
				OFFSET	 0.000000	 0.000000	 0.544354
				CHANNELS 3 Zrotation Xrotation Yrotation
				JOINT RightToeBase
				{
					OFFSET	 0.000000	 0.000000	 0.207540
					CHANNELS 3 Zrotation Xrotation Yrotation
					End Site
					{
						OFFSET	 0.000000	 0.000000	 0.207540
					}
				}
			}
		}
	}
	JOINT Spine
	{
		OFFSET	 0.000184	-0.007763	 0.117403
		CHANNELS 3 Zrotation Xrotation Yrotation
		JOINT Spine1
		{
			OFFSET	 0.000000	 0.000000	 0.137269
			CHANNELS 3 Zrotation Xrotation Yrotation
			JOINT Spine2
			{
				OFFSET	 0.000000	 0.000000	 0.156879
				CHANNELS 3 Zrotation Xrotation Yrotation
				JOINT LeftShoulder
				{
					OFFSET	 0.080501	-0.002496	 0.160144
					CHANNELS 3 Zrotation Xrotation Yrotation
					JOINT LeftArm
					{
						OFFSET	 0.000000	 0.000000	 0.164363
						CHANNELS 3 Zrotation Xrotation Yrotation
						JOINT LeftForeArm
						{
							OFFSET	 0.000000	 0.000000	 0.364576
							CHANNELS 3 Zrotation Xrotation Yrotation
							JOINT LeftHand
							{
								OFFSET	 0.000000	 0.000000	 0.360812
								CHANNELS 3 Zrotation Xrotation Yrotation
								JOINT LeftHandIndex1
								{
									OFFSET	 0.000000	 0.000000	 0.086006
									CHANNELS 3 Zrotation Xrotation Yrotation
									JOINT LeftHandIndex2
									{
										OFFSET	 0.000000	 0.000000	 0.047236
										CHANNELS 3 Zrotation Xrotation Yrotation
										JOINT LeftHandIndex3
										{
											OFFSET	-0.004284	-0.000551	 0.038166
											CHANNELS 3 Zrotation Xrotation Yrotation
											End Site
											{
												OFFSET	-0.004284	-0.000551	 0.038166
											}
										}
									}
								}
							}
						}
					}
				}
				JOINT Neck
				{
					OFFSET	 0.000000	 0.000000	 0.176489
					CHANNELS 3 Zrotation Xrotation Yrotation
					JOINT Head
					{
						OFFSET	 0.000000	-0.001747	 0.077940
						CHANNELS 3 Zrotation Xrotation Yrotation
						End Site
						{
							OFFSET	 0.000000	-0.001747	 0.077940
						}
					}
				}
				JOINT RightShoulder
				{
					OFFSET	-0.080363	 0.000306	 0.159706
					CHANNELS 3 Zrotation Xrotation Yrotation
					JOINT RightArm
					{
						OFFSET	 0.000000	 0.000000	 0.164196
						CHANNELS 3 Zrotation Xrotation Yrotation
						JOINT RightForeArm
						{
							OFFSET	 0.000000	 0.000000	 0.365611
							CHANNELS 3 Zrotation Xrotation Yrotation
							JOINT RightHand
							{
								OFFSET	 0.000000	 0.000000	 0.360648
								CHANNELS 3 Zrotation Xrotation Yrotation
								JOINT RightHandIndex1
								{
									OFFSET	 0.000000	 0.000000	 0.069977
									CHANNELS 3 Zrotation Xrotation Yrotation
									JOINT RightHandIndex2
									{
										OFFSET	 0.000000	 0.000000	 0.052305
										CHANNELS 3 Zrotation Xrotation Yrotation
										JOINT RightHandIndex3
										{
											OFFSET	 0.009002	-0.000782	 0.042196
											CHANNELS 3 Zrotation Xrotation Yrotation
											End Site
											{
												OFFSET	 0.009002	-0.000782	 0.042196
											}
										}
									}
								}
							}
						}
					}
				}
			}
		}
	}
}
MOTION
Frames:    12
Frame Time: 0.03333334
 6.988253	 5.682768	 0.197096	-101.222500	 4.207853	-1.231220	 9.115527	 19.240630	-176.435200	-5.376220	-11.624170	 1.538630	-3.759536	 88.617900	 7.227294	-2.255837	 43.318850	-0.368473	 4.817122	-45.446260	-179.236200	 0.158188	-42.074090	 3.993346	-175.657500	 85.474110	-179.207200	 2.378007	 29.788410	 0.030562	 5.034436	 2.661420	 2.546470	 9.552791	-4.786184	 1.763261	 12.238080	-8.645270	 0.936727	-91.776180	 78.527400	 180.000000	 43.384110	 62.662380	-58.633650	-6.307398	-4.538322	-25.484870	 5.268627	-2.115512	-5.364329	-3.812334	 37.924440	-2.927599	-2.450526	 36.184240	 0.754587	-1.378229	 35.397820	-2.634230	-0.375669	 5.186146	-2.296211	 3.434486	-24.012470	-0.570050	 89.782120	 78.203870	 180.000000	-29.708000	 73.475400	 32.857610	 3.933151	-6.387306	 19.267910	-14.448780	-3.269461	 9.540664	 6.437017	 35.671460	-0.771858	 2.830251	 35.756010	-7.813440	-2.350882	 35.473990	 5.254307
 6.949100	 5.691754	 0.194729	-100.586900	 4.402325	-1.404992	 8.738797	 20.782920	-176.835400	-4.779571	-11.621370	 1.560087	 2.034069	 87.516430	 1.569036	-2.213764	 46.028490	-0.450929	 5.235172	-44.765500	-178.631100	 0.787174	-42.643970	 4.679549	-175.560600	 86.956380	-178.767200	 2.378594	 29.671770	 0.027999	 4.692266	 2.298403	 2.375126	 9.362080	-5.066865	 1.631921	 12.154710	-8.736759	 0.863912	-91.776180	 78.527380	-180.000000	 44.517790	 63.568000	-59.472610	-6.371612	-4.456059	-23.738360	 5.594959	-2.124200	-5.362864	-3.812334	 37.924440	-2.927599	-2.450526	 36.184240	 0.754587	-1.378229	 35.397820	-2.634230	-0.526529	 5.134365	-2.242680	 3.326988	-23.958610	-0.468862	 89.782090	 78.203830	-180.000000	-28.569240	 73.957480	 31.247160	 4.115529	-6.278221	 18.763490	-14.545890	-3.256258	 9.540024	 6.437017	 35.671460	-0.771858	 2.830251	 35.756010	-7.813440	-2.350882	 35.473990	 5.254307
 6.878060	 5.709313	 0.194763	-99.843590	 4.461042	-1.427022	 8.459924	 23.406210	-178.050400	-3.614410	-11.609870	 1.644190	 4.951584	 83.316100	-0.738996	-2.106884	 51.312950	-0.634443	 4.691735	-43.136710	-178.857200	 4.836905	-45.010700	 7.615582	 6.718752	 88.817670	 1.131064	 2.372438	 30.827140	 0.053662	 4.022153	 1.630890	 1.611753	 9.170012	-5.603696	 1.445133	 12.192040	-8.990375	 0.826677	-91.776180	 78.527400	-180.000000	 45.332860	 65.959470	-58.822530	-7.150198	-4.259075	-21.019430	 6.026487	-2.138324	-5.360256	-3.812334	 37.924440	-2.927599	-2.450526	 36.184240	 0.754587	-1.378229	 35.397820	-2.634230	-0.777704	 4.828506	-2.072016	 3.150490	-23.468140	-0.166841	 89.782120	 78.203870	 180.000000	-26.223800	 74.729680	 28.016570	 4.625488	-6.090773	 18.186570	-14.478130	-3.210317	 9.549131	 6.437017	 35.671460	-0.771858	 2.830251	 35.756010	-7.813440	-2.350882	 35.473990	 5.254307
 6.810661	 5.727041	 0.199245	-99.643170	 4.333957	-1.319294	 8.724655	 25.694870	-179.218000	-3.122265	-11.601340	 1.703895	 4.686412	 75.959460	 0.304547	-2.059161	 53.184460	-0.708688	 3.674504	-41.552680	-179.771400	 6.475943	-47.185970	 8.674518	 4.859857	 86.263310	 3.251985	 2.373123	 30.703720	 0.050906	 3.722819	 0.762249	 0.961404	 9.342872	-5.936057	 1.236046	 12.059960	-9.084617	 1.037898	-91.776180	 78.527400	 180.000000	 44.384070	 68.720440	-55.898960	-8.813911	-3.985535	-19.259310	 5.931872	-2.134160	-5.364027	-3.812334	 37.924440	-2.927599	-2.450526	 36.184240	 0.754587	-1.378229	 35.397820	-2.634230	-0.960726	 4.741676	-1.897952	 3.058647	-23.140930	 0.202086	 89.782140	 78.203830	 180.000000	-24.506860	 75.241890	 25.655630	 5.135311	-5.927516	 17.949760	-14.187170	-3.144255	 9.568253	 6.437017	 35.671460	-0.771858	 2.830251	 35.756010	-7.813440	-2.350882	 35.473990	 5.254307
 6.726076	 5.750613	 0.208702	-99.398230	 4.187840	-1.440041	 9.172510	 28.091360	 179.525700	-3.995170	-11.627450	 1.511701	 3.810449	 62.198140	 1.190275	-2.074493	 52.608540	-0.685230	 3.175904	-38.146670	 179.435000	 5.800876	-48.876130	 8.219348	 4.933690	 85.730740	 2.255279	 2.388819	 27.397270	-0.021306	 3.321986	-0.262505	 0.865321	 9.550425	-6.217836	 1.137995	 11.951960	-8.869778	 1.195537	-91.776180	 78.527400	-180.000000	 40.759640	 71.492070	-48.699590	-11.142280	-3.546004	-18.624590	 4.760093	-2.089089	-5.387238	-3.812334	 37.924440	-2.927599	-2.450526	 36.184240	 0.754587	-1.378229	 35.397820	-2.634230	-0.960632	 4.649970	-1.860495	 2.986856	-22.060120	 0.368271	 89.782120	 78.203870	 180.000000	-24.113170	 75.478680	 24.912420	 5.503729	-5.778550	 18.030570	-13.656440	-3.038110	 9.598620	 6.437017	 35.671460	-0.771858	 2.830251	 35.756010	-7.813440	-2.350882	 35.473990	 5.254307
 6.662830	 5.774234	 0.221780	-98.704280	 3.005532	-0.970394	 6.907863	 18.590730	 176.965200	-2.764512	-33.445670	 0.632861	 1.525800	 56.461370	 0.678485	-2.187952	 47.481770	-0.498084	 2.116364	-33.179100	 178.205400	 5.942133	-48.923500	 7.728479	 5.767433	 87.660920	 1.066588	 2.399071	 24.263060	-0.087005	 2.236945	 0.057197	 0.219500	 9.285419	-6.437228	 0.971782	 12.191140	-8.699968	 1.024740	-91.776180	 78.527400	-180.000000	 37.104910	 72.102710	-41.659840	-11.734690	-3.273983	-19.216280	 3.559103	-2.019710	-5.416268	-3.812334	 37.924440	-2.927599	-2.450526	 36.184240	 0.754587	-1.378229	 35.397820	-2.634230	-1.082946	 4.574172	-1.717693	 2.720874	-20.520840	 0.112164	 89.782140	 78.203830	 180.000000	-24.938020	 75.202690	 25.553480	 5.933558	-5.736530	 19.120070	-12.610530	-2.905826	 9.646680	 6.437017	 35.671460	-0.771858	 2.830251	 35.756010	-7.813440	-2.350882	 35.473990	 5.254307
 6.595187	 5.800586	 0.232713	-97.082720	 1.822122	 1.702207	 6.876771	 8.435225	 171.256900	-1.533867	-53.235100	-0.411898	 0.711728	 50.180750	 1.347486	-2.312976	 38.624240	-0.239348	 0.348091	-26.546870	 174.726300	 6.520672	-46.721980	 6.585234	-89.823270	 90.000000	 96.317230	 2.401850	 23.083960	-0.111146	 0.426032	 0.154380	-2.629251	 8.777595	-6.678522	 0.177320	 11.796050	-9.279088	 1.102128	-91.776180	 78.527380	-180.000000	 35.376690	 71.572590	-37.980260	-11.104310	-3.289782	-20.614290	 2.960560	-1.911740	-5.450321	-3.812334	 37.924440	-2.927599	-2.450526	 36.184240	 0.754587	-1.378229	 35.397820	-2.634230	-1.561675	 4.611495	-1.392711	 2.177474	-19.651970	-0.514863	 89.782120	 78.203870	 180.000000	-28.052910	 74.318020	 29.371580	 6.449145	-5.779090	 21.476770	-10.988070	-2.718776	 9.714598	 6.437017	 35.671460	-0.771858	 2.830251	 35.756010	-7.813440	-2.350882	 35.473990	 5.254307
 6.531887	 5.823669	 0.238139	-95.605280	 1.113218	 3.556855	 5.097503	-0.285586	 168.399900	 1.262494	-66.321660	-0.110376	 1.403590	 55.025620	 0.634457	-2.291548	 40.562890	-0.290824	-0.521844	-20.764150	 172.510600	 6.420914	-43.949620	 5.284180	-174.198400	 88.333640	-179.838500	 2.404431	 21.684020	-0.139465	-1.063271	 0.049538	-4.575578	 8.414136	-6.881062	-0.327942	 11.023060	-9.923987	 1.345826	-91.776180	 78.527400	 180.000000	 33.746540	 70.837760	-35.552800	-11.343000	-3.191922	-22.978180	 1.799064	-1.771460	-5.492609	-3.812334	 37.924440	-2.927599	-2.450526	 36.184240	 0.754587	-1.378229	 35.397820	-2.634230	-2.181938	 4.809157	-0.944051	 1.537488	-19.514470	-1.409267	 89.782110	 78.203870	 180.000000	-31.014910	 72.800580	 33.565600	 6.937986	-5.762337	 24.476760	-9.114852	-2.504372	 9.785567	 6.437017	 35.671460	-0.771858	 2.830251	 35.756010	-7.813440	-2.350882	 35.473990	 5.254307
 6.469526	 5.845378	 0.238898	-94.553830	 0.403912	 3.973543	 2.364486	-8.878267	 168.605200	 5.978210	-73.911060	 2.545581	 2.054939	 63.727540	 0.247325	-2.285999	 41.026140	-0.303490	-0.606588	-15.892120	 171.749400	 5.973462	-42.525790	 4.473655	-175.164700	 86.501620	-179.322900	 2.405993	 20.524590	-0.162673	-2.119857	 0.205516	-4.868467	 8.257913	-6.934449	-0.376687	 10.145950	-10.365270	 1.636261	-91.776180	 78.527400	 180.000000	 30.842750	 70.418880	-32.516370	-13.235080	-2.751553	-26.604860	-0.321285	-1.604444	-5.539784	-3.812334	 37.924440	-2.927599	-2.450526	 36.184240	 0.754587	-1.378229	 35.397820	-2.634230	-2.732043	 4.915761	-0.467939	 0.919826	-19.603690	-2.525397	 89.782120	 78.203870	 180.000000	-33.660260	 70.645340	 38.191200	 7.394496	-5.573095	 27.918710	-6.983078	-2.265600	 9.851343	 6.437017	 35.671460	-0.771858	 2.830251	 35.756010	-7.813440	-2.350882	 35.473990	 5.254307
 6.412917	 5.863296	 0.235874	-94.159820	-0.001124	 4.190349	 0.488757	-16.523410	 169.652000	 2.593780	-76.064960	-1.550914	 0.844965	 73.202770	-0.247982	-2.272532	 42.092830	-0.333232	-0.550601	-12.440200	 171.279800	 5.767992	-42.555310	 4.156034	-175.103500	 84.866840	-179.624800	 2.403532	 22.221990	-0.128623	-3.037671	 0.373907	-5.162390	 8.398947	-7.079879	-0.167484	 9.572461	-10.933270	 2.035790	-91.776180	 78.527400	-180.000000	 28.489680	 70.299680	-30.079310	-15.326510	-2.059861	-30.177470	-2.597079	-1.444906	-5.580041	-3.812334	 37.924440	-2.927599	-2.450526	 36.184240	 0.754587	-1.378229	 35.397820	-2.634230	-3.059271	 4.973594	-0.155080	 0.498513	-19.589660	-3.247611	 89.782090	 78.203830	-180.000000	-35.016120	 68.301120	 41.753330	 7.716411	-5.217661	 30.978300	-4.988601	-2.020645	 9.908013	 6.437017	 35.671460	-0.771858	 2.830251	 35.756010	-7.813440	-2.350882	 35.473990	 5.254307
 6.359455	 5.878495	 0.230883	-94.022460	 0.185108	 4.677711	-0.822735	-23.139950	 170.734900	-4.532104	-73.784480	-8.763404	-1.223810	 80.013630	-0.758173	-2.262816	 42.818090	-0.353939	-0.668417	-9.784560	 170.579300	 5.384631	-43.040340	 3.638314	-176.391800	 82.920580	-178.887400	 2.404941	 21.342720	-0.146319	-4.348567	 0.317885	-5.889238	 8.425987	-7.338799	 0.030170	 9.160382	-11.596910	 2.321382	-91.776180	 78.527400	-180.000000	 27.007390	 70.369780	-28.407690	-16.705800	-1.479456	-33.215000	-4.287952	-1.310448	-5.613859	-3.812334	 37.924440	-2.927599	-2.450526	 36.184240	 0.754587	-1.378229	 35.397820	-2.634230	-3.181430	 5.019580	-0.065757	 0.284510	-19.392920	-3.434505	 89.782120	 78.203870	 180.000000	-35.342820	 66.060830	 44.294290	 8.045116	-4.740061	 33.597860	-3.124616	-1.783555	 9.952948	 6.437017	 35.671460	-0.771858	 2.830251	 35.756010	-7.813440	-2.350882	 35.473990	 5.254307
 6.300031	 5.894281	 0.224840	-94.094470	 0.388102	 5.216295	-1.401571	-28.264010	 171.798400	-6.372984	-66.571690	-9.933432	-1.758309	 84.599850	-2.314096	-2.273264	 42.036810	-0.331650	-0.428686	-6.193918	 169.763700	 5.228650	-41.983460	 3.266079	-176.279100	 81.778270	-179.152100	 2.404750	 21.475300	-0.143664	-6.067278	 0.215502	-6.620049	 8.349023	-7.650399	 0.180901	 8.796191	-12.323190	 2.512877	-91.776180	 78.527400	 180.000000	 26.571780	 70.425250	-27.765990	-17.756570	-0.774033	-35.708470	-6.062764	-1.160559	-5.649115	-3.812334	 37.924440	-2.927599	-2.450526	 36.184240	 0.754587	-1.378229	 35.397820	-2.634230	-3.111599	 4.920600	-0.071564	 0.229084	-19.222310	-3.311669	 89.782110	 78.203870	 180.000000	-35.288280	 63.869890	 46.813320	 8.502691	-4.131560	 36.137540	-1.190159	-1.510967	 9.996364	 6.437017	 35.671460	-0.771858	 2.830251	 35.756010	-7.813440	-2.350882	 35.473990	 5.254307
